PathFileType	4	(X/Y/Z)	D:\Share\Shared_Data\Ergonomics\Sit To Stand Pertubation\S3\Perturbed.trc
DataRate	CameraRate	NumFrames	NumMarkers	Units	OrigDataRate	OrigDataStartFrame	OrigNumFrames	
100	100	11	18	m	100	9555	231
Frame#	Time	R_ASIS			R_Pelvis			V_Sacral			L_Pelvis			L_ASIS			Clavical			R_Acromium			L_Acromium			Sternum			Torso			R_Thigh_Med			R_Thigh_Lat			R_Thigh			R_Shank_Med			R_Shank_Lat			R_Shank			R_Heel			R_Toe			
		X1	Y1	Z1	X2	Y2	Z2	X3	Y3	Z3	X4	Y4	Z4	X5	Y5	Z5	X6	Y6	Z6	X7	Y7	Z7	X8	Y8	Z8	X9	Y9	Z9	X10	Y10	Z10	X11	Y11	Z11	X12	Y12	Z12	X13	Y13	Z13	X14	Y14	Z14	X15	Y15	Z15	X16	Y16	Z16	X17	Y17	Z17	X18	Y18	Z18	

9555	95.54	0.2611507	0.82676257	0.15704961	0.15917384	0.85949994	0.21251045	0.062398884	0.91061365	0.018558105	0.17148233	0.87386298	-0.18396758	0.26464105	0.82563135	-0.12154384	0.43467926	1.2101637	0.010537466	0.4323201	1.2845219	0.16887614	0.44002899	1.2848937	-0.13419781	0.43020551	1.1247888	0.015992149	0.43852063	1.1934659	-0.04776133	0.42492435	0.45730948	0.068820312	0.40896136	0.43836551	0.17468146	0.36488214	0.65453693	0.12331585	0.30893158	0.10608717	0.091885658	0.29232043	0.094007217	0.17415385	0.33232425	0.27123346	0.19085959	0.23216185	0.056029045	0.13667009	0.45012897	0.055222279	0.11557143
9556	95.55	0.26651959	0.83558569	0.15697748	0.16423564	0.86652948	0.21220485	0.066931931	0.91718945	0.018789244	0.17578036	0.88108319	-0.18373077	0.26978598	0.83432581	-0.12179379	0.43376318	1.222709	0.010735144	0.4299411	1.2964907	0.16946938	0.43701569	1.29733	-0.13435449	0.43019	1.1371735	0.015676113	0.43787543	1.2061807	-0.047784988	0.42352698	0.45810599	0.068082603	0.40691772	0.43931827	0.17382793	0.36812857	0.65653784	0.12384483	0.30877292	0.10613426	0.091937965	0.29225427	0.093894165	0.17419601	0.33093655	0.27185443	0.19047797	0.23209929	0.055838722	0.13654791	0.45001913	0.055322769	0.11558929
9557	95.56	0.27195551	0.844245	0.15687334	0.16938737	0.8734198	0.21189925	0.071512619	0.92347546	0.019068014	0.18023221	0.88815619	-0.18352844	0.27502158	0.84285638	-0.12205055	0.43268265	1.2350378	0.010926374	0.42731186	1.3082084	0.17007703	0.43375067	1.3095284	-0.13450571	0.43010004	1.1494611	0.015417182	0.43706989	1.2187307	-0.047855259	0.42194	0.45887936	0.067211441	0.40472772	0.44031287	0.17287109	0.37128952	0.65840106	0.12423454	0.30861185	0.10616908	0.091971939	0.29218121	0.09379409	0.17419157	0.3294613	0.27252707	0.19004172	0.23203807	0.055503838	0.13629378	0.44992642	0.055403442	0.11559615
9558	95.57	0.27744873	0.85271765	0.15674467	0.17461288	0.8801687	0.21160469	0.076138596	0.92948492	0.019361681	0.18484914	0.89505298	-0.18335808	0.28034265	0.8511889	-0.1222889	0.43145874	1.247099	0.011112572	0.424453	1.3196187	0.17070412	0.43023825	1.3214271	-0.13466373	0.42998694	1.1615964	0.015229426	0.43612436	1.2310679	-0.047973999	0.42011511	0.45962582	0.066224556	0.4023743	0.44135101	0.1718252	0.37433688	0.66013336	0.12446282	0.30843796	0.1061902	0.091991219	0.29210196	0.093709084	0.1741451	0.3278877	0.27324591	0.18955295	0.23197493	0.054978813	0.13587395	0.44985086	0.055465405	0.11559185
9559	95.58	0.28298944	0.86097949	0.15659641	0.17990166	0.88676349	0.21132797	0.08080899	0.93524084	0.019624151	0.18963658	0.90174243	-0.18321782	0.28574323	0.85928723	-0.1224894	0.43011179	1.2588458	0.011296101	0.42138953	1.3306686	0.17135291	0.42649194	1.3329653	-0.13483725	0.42986859	1.1735251	0.015106194	0.43505746	1.2431444	-0.048140984	0.41801712	0.4603447	0.065141022	0.39984509	0.4424328	0.17070251	0.37724899	0.66174445	0.12451228	0.30823929	0.10619659	0.092000587	0.29201889	0.093635536	0.17406216	0.32620786	0.2740004	0.18901303	0.2319068	0.054238022	0.1352718	0.44978992	0.055512642	0.115577
9560	95.59	0.28856537	0.86900305	0.15643114	0.18524515	0.89318518	0.21107863	0.085520721	0.94074994	0.019823236	0.19459258	0.90819519	-0.1831077	0.29121548	0.8671134	-0.12264106	0.4286597	1.2702354	0.01147925	0.4181489	1.341309	0.17202219	0.42253427	1.3440868	-0.13503186	0.42974231	1.1851964	0.015033177	0.43388467	1.2549119	-0.048354488	0.4156301	0.46103946	0.063977257	0.39713669	0.44355502	0.16951257	0.38001843	0.6632431	0.12437092	0.30800381	0.1061882	0.092005692	0.29193106	0.09357119	0.17395255	0.32441949	0.27477716	0.18842522	0.23183261	0.053302704	0.13450932	0.44973877	0.055551666	0.11555264
9561	95.6	0.29416284	0.87675586	0.15625067	0.19063208	0.89941119	0.21087151	0.09026825	0.94599963	0.019944443	0.19970544	0.91438446	-0.18303046	0.29675027	0.87463062	-0.12274095	0.42711624	1.2812292	0.011663068	0.41475925	1.3514971	0.17270712	0.41839545	1.3547404	-0.13525041	0.42959656	1.1965625	0.014995489	0.43261737	1.2663231	-0.048611599	0.41295688	0.46171539	0.062744267	0.39425574	0.44470981	0.16826407	0.3826506	0.66463196	0.12403382	0.30772153	0.10616595	0.092012482	0.29183221	0.093523056	0.17383514	0.32252737	0.27556226	0.18779564	0.23175551	0.052259983	0.1336613	0.4496907	0.0555905	0.11551997
9562	95.61	0.29976721	0.88419995	0.15605856	0.19604625	0.90541754	0.21072635	0.095044594	0.95096844	0.019985136	0.20495363	0.92028821	-0.18299071	0.30233902	0.88180634	-0.12279271	0.42549078	1.2917925	0.011846716	0.41124789	1.3611968	0.17339963	0.41411227	1.3648835	-0.13549359	0.42941647	1.2075771	0.014980849	0.43126251	1.2773303	-0.048908287	0.41001056	0.462375	0.061448437	0.39121875	0.44588348	0.16696751	0.38515146	0.6659043	0.12350562	0.30738623	0.10613142	0.092026405	0.29171194	0.093511604	0.17373976	0.32054337	0.27634335	0.18713301	0.23168159	0.051237629	0.13283473	0.44963885	0.055637005	0.11548009
9563	95.62	0.30535953	0.89129376	0.1558622	0.20146738	0.9111803	0.21066437	0.099842216	0.95563165	0.019949772	0.2103102	0.92588776	-0.18299074	0.30797375	0.88861414	-0.12280553	0.4237897	1.3018911	0.012027814	0.40764072	1.3703792	0.17408846	0.40972675	1.3744822	-0.13576089	0.42918585	1.2181948	0.014980759	0.42982425	1.2878868	-0.049239285	0.40680862	0.46301483	0.060095139	0.38804984	0.44705753	0.16563609	0.38752069	0.66704407	0.12279967	0.30699762	0.10608626	0.092051384	0.29156049	0.093563766	0.17370006	0.31848566	0.27711023	0.18644829	0.23161508	0.050347485	0.13212408	0.44957782	0.055696983	0.1154341
9564	95.63	0.31091547	0.8979975	0.15567188	0.20687289	0.91667432	0.21070212	0.10465318	0.95996417	0.019845396	0.2157482	0.93116669	-0.18302528	0.31364713	0.89503424	-0.12279317	0.42201712	1.3114922	0.012203152	0.40396124	1.3790217	0.17475928	0.40528577	1.3835121	-0.1360507	0.42888892	1.2283715	0.014989879	0.4283045	1.2979471	-0.049598454	0.40337622	0.4636265	0.058691521	0.38477921	0.44821149	0.16428432	0.38975894	0.66802893	0.12193361	0.3065632	0.10603179	0.092088425	0.29137485	0.093696762	0.17373965	0.31637494	0.27785361	0.18575363	0.23155556	0.049651154	0.13158293	0.44950568	0.055772205	0.11538299
9565	95.64	0.31641245	0.90428101	0.15549855	0.21223727	0.92187231	0.21084189	0.10946913	0.9639408	0.019679449	0.22124182	0.93610846	-0.18308231	0.31935141	0.90105328	-0.12277231	0.42017551	1.320564	0.012368924	0.40023022	1.3871093	0.17539484	0.40083975	1.3919591	-0.13636012	0.42851205	1.2380635	0.015004388	0.4267023	1.3074688	-0.049979179	0.39975204	0.46419827	0.057247864	0.38144104	0.44932581	0.16292686	0.39187543	0.66883295	0.12092609	0.30609885	0.10596852	0.092134537	0.29116425	0.093906807	0.17386285	0.31423163	0.27856433	0.18506081	0.23150087	0.049159821	0.13122154	0.44942542	0.055858952	0.11532765
